<?xml version="1.0" encoding="UTF-8"?>
<svg enable-background="new 0 0 512.001 512.001" version="1.1" viewBox="0 0 512 512" xml:space="preserve" xmlns="http://www.w3.org/2000/svg" xmlns:cc="http://creativecommons.org/ns#" xmlns:dc="http://purl.org/dc/elements/1.1/" xmlns:rdf="http://www.w3.org/1999/02/22-rdf-syntax-ns#"><metadata><rdf:RDF><cc:Work rdf:about=""><dc:format>image/svg+xml</dc:format><dc:type rdf:resource="http://purl.org/dc/dcmitype/StillImage"/><dc:title/></cc:Work></rdf:RDF></metadata>
























<g transform="matrix(.60274 -.59761 .59745 .60289 -51.105 300.43)"><g fill="#ff2c5c">
	<path d="m101.5 384.81-76.099-59.856c-4.157-3.127-5.518-8.647-3.023-12.26 12.197-17.664 35.693-23.697 58.779-15.092l68.824 39.041z"/>
	<path d="m127.04 410.34 60.013 76.256c3.127 4.157 8.647 5.518 12.26 3.023l4.537-3.133c14.941-10.316 20.043-30.19 12.765-49.717l-41.251-74.754z"/>
</g><polygon points="101.5 384.81 149.98 336.64 105.94 311.66 62.885 354.43" fill="#e62753"/><g fill="#c3d3db">
	<path d="m122.12 150.38c-9.557-9.557-10.313-24.785-1.775-35.262 12.212-14.986 27.512-31.673 36.69-40.851 12.556-12.556 13.653-11.056 27.068-19.279 1.975-1.211 4.524-0.919 6.162 0.719l26.529 26.529c1.638 1.638 1.929 4.187 0.719 6.162-8.223 13.415-6.723 14.511-19.279 27.067-9.178 9.178-25.865 24.478-40.851 36.69-10.478 8.537-25.707 7.782-35.263-1.775z"/>
	<path d="m361.62 389.88c-9.557-9.557-10.313-24.785-1.775-35.262 12.212-14.986 27.512-31.673 36.69-40.851 12.556-12.556 13.652-11.056 27.068-19.279 1.975-1.211 4.524-0.919 6.162 0.719l26.529 26.529c1.638 1.638 1.929 4.187 0.719 6.162-8.223 13.415-6.723 14.511-19.279 27.068-9.178 9.178-25.865 24.478-40.851 36.69-10.478 8.537-25.706 7.781-35.263-1.776z"/>
</g><path d="m241.92 240.84 93.887-93.887-290.84-91.38c-5.989-1.529-11.943-0.073-15.905 3.889l-24.572 24.572c-8.229 8.229-4.697 23.314 6.92 29.552z" fill="#ff2c5c"/><polygon points="241.92 240.84 335.81 146.96 270.09 126.31 186.28 210.12" fill="#e62753"/><path d="m271.16 270.08 93.887-93.887 91.38 290.84c1.529 5.989 0.073 11.943-3.889 15.905l-24.572 24.572c-8.229 8.229-23.314 4.697-29.552-6.92z" fill="#ff2c5c"/><path d="m448.37 136.72-157.73 157.73c-26.466 26.466-54.603 51.152-84.061 73.75l-75.044 57.568c-17.373 13.328-38.035 14.94-49.14 3.835s-9.493-31.767 3.835-49.14l57.568-75.044c22.598-29.458 47.283-57.594 73.75-84.061l157.73-157.73c21.562-21.562 46.326-39.527 72.487-51.861 22.529-10.621 46.476-17.275 58.108-5.643s4.978 35.579-5.643 58.108c-12.333 26.163-30.298 50.926-51.86 72.488z" fill="#e0f3fc"/><path d="m505.87 6.128c-4.094-4.094-9.718-5.916-16.265-6.103 0.471 12.114-4.782 27.478-11.739 42.234-12.333 26.161-30.298 50.925-51.861 72.487l-157.73 157.73c-26.466 26.466-54.603 51.152-84.061 73.749l-75.044 57.568c-11.05 8.477-23.428 12.206-33.834 10.946 0.782 5.775 3.113 10.924 7.055 14.866 11.105 11.105 31.767 9.493 49.14-3.835l75.044-57.568c29.458-22.598 57.594-47.283 84.061-73.75l157.73-157.73c21.562-21.562 39.527-46.326 51.861-72.487 10.62-22.529 17.274-46.476 5.642-58.108z" fill="#c3d3db"/><path d="m461.44 106.52-5.386 5.386c-5.002 5.002-60.956-50.952-55.954-55.954l5.386-5.386c3.395-3.395 8.378-4.465 12.436-2.67 20.219 8.944 37.244 25.97 46.189 46.189 1.793 4.057 0.724 9.04-2.671 12.435z" fill="#51c4f5"/><path d="m99.44 420.06c-1.919 0-3.839-0.732-5.303-2.197-2.929-2.929-2.929-7.678 0-10.606l65.496-65.496c2.929-2.929 7.678-2.929 10.606 0 2.929 2.929 2.929 7.678 0 10.606l-65.496 65.496c-1.464 1.464-3.383 2.197-5.303 2.197z" fill="#e62753"/></g>
</svg>
